<svg id="Layer_1" data-name="Layer 1" xmlns="http://www.w3.org/2000/svg" viewBox="0 0 609 169.7"><defs><style>.cls-1{fill:#fff;}.cls-2{fill:#719697;}.cls-3{fill:#231f20;}.cls-4{fill:none;}</style></defs><title>hollywood_logo</title><rect class="cls-1" x="37.32" y="18" width="532.5" height="82"/><g id="desktop"><g id="FILM-DETAIL-_2-VERSIONS_" data-name="FILM-DETAIL- 2-VERSIONS "><g id="desktop-2"><g id="black"><g id="header"><g id="Logo-_-Tagline" data-name="Logo- -Tagline"><g id="HOLLYWOOD"><path id="path-1" class="cls-2" d="M83,88.77V66.25H62.42V88.77H49.73V34.25H62.42V55.87H83V34.25H95.69V88.77Zm61.08-42.82-2.8-1.48H124.05l-2.8,1.48V76.29l2.8,1.48h17.24l2.8-1.48Zm1.09,42.82h-25l-11.81-5.65V39.9l11.81-5.66h25L157,39.9V83.11ZM485.52,46l-2.8-1.48h-17.9L462,46V76.29l2.8,1.48h17.89l2.8-1.48Zm1.1,42.82H460.93l-11.82-5.65V39.9l11.82-5.66h25.69l11.82,5.66V83.11Zm-276.78,0H169.61V34.25H182.3V78.3h27.54Zm49.14,0H218.75V34.25h12.68V78.3H259ZM284.9,67.34V88.77H272.56V67.34L252,34.25h13.24l13.09,21.28.39.87.39-.87,13-21.28H305Zm80.92,21.42H355l-9.7-31.63-.41-2-.4,2-9.72,31.63H324L309.32,34.25H322l7.81,31.48.4,2.08.4-2.08,9.09-31.48h10.5l9.1,31.48.4,2.08.4-2.08,7.7-31.48h12.67ZM547,46l-2.82-1.48h-20.3v33.3h20.3L547,76.29Zm.75,42.82H511.08V34.25h36.64L560,39.9V83.11ZM424.24,46l-2.8-1.48H403.55L400.75,46V76.29l2.8,1.48h17.89l2.8-1.48ZM280.72,0,267.24,9.79H30V31.11L17,42.9v38L30,92.7V114H215.88l11.82-9H381.3l11.82,9H579V92.48l13-11.8V42.9L579,31.11V9.79H341.76L328.28,0ZM425.34,88.77H399.65l-11.82-5.65V39.9l11.82-5.66h25.69l11.82,5.66V83.11Z"/><path id="path-1-2" class="cls-3" d="M83,88.77V66.25H62.42V88.77H49.73V34.25H62.42V55.87H83V34.25H95.69V88.77Zm61.08-42.82-2.8-1.48H124.05l-2.8,1.48V76.29l2.8,1.48h17.24l2.8-1.48Zm1.09,42.82h-25l-11.81-5.65V39.9l11.81-5.66h25L157,39.9V83.11ZM485.52,46l-2.8-1.48h-17.9L462,46V76.29l2.8,1.48h17.89l2.8-1.48Zm1.1,42.82H460.93l-11.82-5.65V39.9l11.82-5.66h25.69l11.82,5.66V83.11Zm-276.78,0H169.61V34.25H182.3V78.3h27.54Zm49.14,0H218.75V34.25h12.68V78.3H259ZM284.9,67.34V88.77H272.56V67.34L252,34.25h13.24l13.09,21.28.39.87.39-.87,13-21.28H305Zm80.92,21.42H355l-9.7-31.63-.41-2-.4,2-9.72,31.63H324L309.32,34.25H322l7.81,31.48.4,2.08.4-2.08,9.09-31.48h10.5l9.1,31.48.4,2.08.4-2.08,7.7-31.48h12.67ZM547,46l-2.82-1.48h-20.3v33.3h20.3L547,76.29Zm.75,42.82H511.08V34.25h36.64L560,39.9V83.11ZM424.24,46l-2.8-1.48H403.55L400.75,46V76.29l2.8,1.48h17.89l2.8-1.48ZM280.72,0,267.24,9.79H30V31.11L17,42.9v38L30,92.7V114H215.88l11.82-9H381.3l11.82,9H579V92.48l13-11.8V42.9L579,31.11V9.79H341.76L328.28,0ZM425.34,88.77H399.65l-11.82-5.65V39.9l11.82-5.66h25.69l11.82,5.66V83.11Z"/></g><g id="THEATRE"><path id="path-2" class="cls-2" d="M233.5,115v4.71h6.13V135h5.55V119.71h6.13V115Zm82.17,0v4.71h6.13V135h5.55V119.71h6.13V115Zm-48.84,0v6.86H260.6V115h-5.41v20h5.41v-8.29h6.23V135h5.41V115Zm10.56,0v20h15.88v-4.86H282.79V127h6.86v-4.57h-6.86v-2.89H293V115Zm81.24,0v20H374.5v-4.86H364.34V127h6.55v-4.57h-6.55v-2.89h9.9V115Zm-56.54,0-5.69,20h5.19l1.28-4.29h5.93l1.29,4.29h5.63L310,115Zm3.58,4.66.14-.66.14.66,1.89,6.76h-4ZM337.41,115v20h5.41v-6.72h3.84L349,135h5.94l-3.19-8.06,2.65-2.66v-5.57L350.7,115Zm5.41,4.57h5l1.07,1.08v2l-1.07,1.08h-5Z"/><path id="path-2-2" class="cls-3" d="M233.5,115v4.71h6.13V135h5.55V119.71h6.13V115Zm82.17,0v4.71h6.13V135h5.55V119.71h6.13V115Zm-48.84,0v6.86H260.6V115h-5.41v20h5.41v-8.29h6.23V135h5.41V115Zm10.56,0v20h15.88v-4.86H282.79V127h6.86v-4.57h-6.86v-2.89H293V115Zm81.24,0v20H374.5v-4.86H364.34V127h6.55v-4.57h-6.55v-2.89h9.9V115Zm-56.54,0-5.69,20h5.19l1.28-4.29h5.93l1.29,4.29h5.63L310,115Zm3.58,4.66.14-.66.14.66,1.89,6.76h-4ZM337.41,115v20h5.41v-6.72h3.84L349,135h5.94l-3.19-8.06,2.65-2.66v-5.57L350.7,115Zm5.41,4.57h5l1.07,1.08v2l-1.07,1.08h-5Z"/></g><g id="TAGLINE"><path id="path-3" class="cls-4" d="M588.68,143.5v26.2l1.14-.58v-25Zm2.86,23.29,1.14-.58V162l.14-.17,3.29-.85-2,1.31v1.6l.86.87h1.72l1.14-1.16v-.87l-.57-.58h-.57l.28.58-.28.58-.57.29h-.57l-.29-.58.29-.58,1.15-1.17,1.72-.87,9.16-2.33L609,156.6l-1.43-1.46-9.16-2.33-1.72-.87-1.15-1.16-.29-.58.29-.58h.57l.57.29.28.58-.28.58h.57l.57-.58v-.87l-1.14-1.16H595l-.86.87v1.6l2,1.31-3.29-.84-.14-.17V147l-1.14-.58Zm1.14-10.92v-3.2l.14-.12,13,3.32L607,156H592.83Zm0,4.66v-3.2l.14-.14H607l-1.14.14-13,3.32ZM37.29,154l-.44-.8-.88-.4H34.11l-.22.2v2.5l.22.2H36l.88-.4.44-.8Zm1.2,4.91H34.11l-.22.2v4.51H29.73v-14h9l2.85,2.61v3.91Zm15.34-5-.44-.8-.88-.4H51.42l-.88.4-.44.8v5.21l.44.8.88.4h1.09l.88-.4.44-.8Zm1.53,9.72H48.57L45.72,161v-8.8l2.85-2.61h6.79l2.85,2.61V161ZM71.25,154l-.44-.8-.88-.4H68.07l-.22.2v2.5l.22.2h1.86l.88-.4.44-.8Zm.11,9.62-1.64-4.51-.44-.2h-1.2l-.22.2v4.51H63.69v-14h9l2.85,2.61v3.91l-2,1.8,2.27,5.72ZM87.9,152.9l-.22.2v10.52H83.41V153.1l-.22-.2h-4v-3.31H91.88v3.31Zm17.34,10.72H95.79v-14h4.27v10.32l.33.3h4.85Zm10.31-10.52-.11-.7-.11.7-1.1,4.31.22.2h2l.22-.2Zm2.6,10.52-.68-2.81-.22-.2h-3.61l-.22.2-.68,2.81h-4l3.88-14h6l3.83,14Zm20.79,0h-3l-4.82-7.42-.44-1,.11,1v7.42h-3.72v-14h4.05l3.83,5.91.44,1-.11-1v-5.91h3.61Zm14.24-9.42-.55-1-1.09-.5h-1.42l-.22.2V160l.33.3h1.31l1.09-.5.55-1Zm1.31,9.42h-9v-14h9l3.07,2.81v8.42Zm10.3-9.22-2.19,1h-1.09l.33-.6,1.31-.6.44-.8v-.7h-1.21l-1.09-1v-2l1.09-1h2.41l1.09,1v2.71Zm9.64-1.6-.66.3-.33.6v.4l.44.4,3.4.7,2.08,1.9V161l-2.85,2.61H169V160.2h5l.66-.3.33-.6v-.8l-.55-.5-3.4-.7-2-1.8v-3.3l2.85-2.61h7v3.21Zm24.65,10.83V158l-.22-.2h-2.63l-.22.2v5.61h-4.16v-14H196v4.61l.22.2h2.63l.22-.2v-4.61h4.16v14Zm10.74-14h4.27v14h-4.27Zm48.31,4.31-.44-.8-.88-.4h-1.09l-.88.4-.44.8v5.21l.44.8.88.4h1.09l.88-.4.44-.8Zm1.53,9.72h-6.79L250,161v-8.8l2.85-2.61h6.79l2.85,2.61V161ZM276,154l-.44-.8-.88-.4h-1.86l-.22.2v2.5l.22.2h1.86l.88-.4.44-.8Zm.11,9.62-1.64-4.51-.44-.2h-1.2l-.22.2v4.51h-4.16v-14h9l2.85,2.61v3.91l-2,1.8,2.27,5.72Zm10.08-14h4.27v14h-4.27Zm20.41,14h-7.15l-3.07-2.81V152.4l3.07-2.81h6.94v3.31h-3.65l-1.31.6-.55,1v4.21l.55,1,1.31.6h3.87Zm24,0h-3l-4.82-7.42-.44-1,.11,1v7.42h-3.72v-14h4l3.83,5.91.44,1-.11-1v-5.91h3.61Zm14-9.72-.44-.8-.88-.4h-1.09l-.88.4-.44.8v5.21l.44.8.88.4h1.09l.88-.4.44-.8Zm1.53,9.72h-6.79L336.47,161v-8.8l2.85-2.61h6.79L349,152.2V161ZM380.84,154l-.44-.8-.88-.4h-1.86l-.22.2v2.5l.22.2h1.86l.88-.4.44-.8Zm1.2,4.91h-4.38l-.22.2v4.51h-4.16v-14h9l2.85,2.61v3.91ZM397.49,154l-.44-.8-.88-.4h-1.86l-.22.2v2.5l.22.2h1.86l.88-.4.44-.8Zm.11,9.62-1.6-4.5-.44-.2h-1.21l-.22.2v4.51H390v-14h9l2.85,2.61v3.91l-2,1.8,2.27,5.72Zm17.53-9.72-.44-.8-.88-.4h-1.1l-.88.4-.44.8v5.21l.44.8.88.4h1.1l.88-.4.44-.8Zm1.53,9.72h-6.79L407,161v-8.8l2.85-2.61h6.79l2.85,2.61V161Zm13.15-10.82-.22.2v1.6l.22.2h3.07V158h-3.07l-.22.2v5.41h-4.16v-14H435v3.21Zm9.86-3.21h4.27v14h-4.27Zm55.76,14V158l-.22-.2h-2.63l-.22.2v5.61H488.2v-14h4.16v4.61l.22.2h2.63l.22-.2v-4.61h4.16v14Zm20.74,0h-10v-14h10v3.21H510.5l-.17.2v1.4l.22.2h3.07v3.21h-3.07l-.22.2v1.9l.33.3h5.51Zm63.65,0h-10v-14h10v3.21h-5.66l-.17.2v1.4l.22.2h3.07v3.21h-3.07l-.22.2v1.9l.33.3h5.51ZM559.62,154l-.44-.8-.88-.4h-1.86l-.22.2v2.5l.22.2h1.86l.88-.4.44-.8Zm.11,9.62-1.64-4.51-.44-.2h-1.21l-.22.2v4.51h-4.16v-14h9l2.85,2.61v3.91l-2,1.8,2.27,5.72ZM225.29,152.8l-.66.3-.33.6v.4l.44.4,3.4.7,2.08,1.9V161l-2.85,2.61h-7.48V160.2h5l.66-.3.33-.6v-.8l-.55-.5-3.4-.7-2-1.8v-3.3l2.85-2.61h7v3.21Zm17.09.1-.22.2v10.52h-4.27V153.1l-.22-.2h-4v-3.31h12.68v3.31ZM366.7,163.63h-3l-4.82-7.42-.44-1,.11,1v7.42h-3.72v-14h4l3.83,5.91.44,1-.11-1v-5.91h3.62ZM457,152.9l-.22.2v10.52H452.5V153.1l-.22-.2h-4v-3.31H461v3.31Zm22.9,0-.22.2v10.52H475.4V153.1l-.22-.2h-4v-3.31h12.68v3.31Zm46.26.2-.11-.7-.11.7-1.09,4.31.22.2h2l.22-.2Zm2.61,10.52-.68-2.81-.22-.2h-3.61l-.22.2-.68,2.81h-4l3.88-14h6l3.83,14Zm15-10.72-.22.2v10.52h-4.27V153.1l-.22-.2h-4v-3.31h12.68v3.31ZM20.32,143.5l-1.14.58v25l1.14.58Zm-4,3.49v4.22l-.14.17-3.29.84,2-1.31v-1.6l-.86-.87H12.31l-1.14,1.16v.87l.57.58h.57l-.29-.58.29-.58.57-.29h.57l.29.58-.29.58-1.14,1.16-1.72.87-9.16,2.33L0,156.6l1.43,1.45,9.16,2.33,1.72.87,1.14,1.17.29.58-.29.58h-.57l-.57-.29-.29-.58.29-.58h-.57l-.57.58v.87l1.14,1.16H14l.86-.87v-1.6l-2-1.31,3.29.85.14.17v4.22l1.15.58V146.41ZM3.15,155.87l13-3.32.14.12v3.2l-.14.14H2Zm0,1.46L2,157.18H16.17l.14.14v3.2l-.14.12Z"/><path id="path-3-2" class="cls-3" d="M588.68,143.5v26.2l1.14-.58v-25Zm2.86,23.29,1.14-.58V162l.14-.17,3.29-.85-2,1.31v1.6l.86.87h1.72l1.14-1.16v-.87l-.57-.58h-.57l.28.58-.28.58-.57.29h-.57l-.29-.58.29-.58,1.15-1.17,1.72-.87,9.16-2.33L609,156.6l-1.43-1.46-9.16-2.33-1.72-.87-1.15-1.16-.29-.58.29-.58h.57l.57.29.28.58-.28.58h.57l.57-.58v-.87l-1.14-1.16H595l-.86.87v1.6l2,1.31-3.29-.84-.14-.17V147l-1.14-.58Zm1.14-10.92v-3.2l.14-.12,13,3.32L607,156H592.83Zm0,4.66v-3.2l.14-.14H607l-1.14.14-13,3.32ZM37.29,154l-.44-.8-.88-.4H34.11l-.22.2v2.5l.22.2H36l.88-.4.44-.8Zm1.2,4.91H34.11l-.22.2v4.51H29.73v-14h9l2.85,2.61v3.91Zm15.34-5-.44-.8-.88-.4H51.42l-.88.4-.44.8v5.21l.44.8.88.4h1.09l.88-.4.44-.8Zm1.53,9.72H48.57L45.72,161v-8.8l2.85-2.61h6.79l2.85,2.61V161ZM71.25,154l-.44-.8-.88-.4H68.07l-.22.2v2.5l.22.2h1.86l.88-.4.44-.8Zm.11,9.62-1.64-4.51-.44-.2h-1.2l-.22.2v4.51H63.69v-14h9l2.85,2.61v3.91l-2,1.8,2.27,5.72ZM87.9,152.9l-.22.2v10.52H83.41V153.1l-.22-.2h-4v-3.31H91.88v3.31Zm17.34,10.72H95.79v-14h4.27v10.32l.33.3h4.85Zm10.31-10.52-.11-.7-.11.7-1.1,4.31.22.2h2l.22-.2Zm2.6,10.52-.68-2.81-.22-.2h-3.61l-.22.2-.68,2.81h-4l3.88-14h6l3.83,14Zm20.79,0h-3l-4.82-7.42-.44-1,.11,1v7.42h-3.72v-14h4.05l3.83,5.91.44,1-.11-1v-5.91h3.61Zm14.24-9.42-.55-1-1.09-.5h-1.42l-.22.2V160l.33.3h1.31l1.09-.5.55-1Zm1.31,9.42h-9v-14h9l3.07,2.81v8.42Zm10.3-9.22-2.19,1h-1.09l.33-.6,1.31-.6.44-.8v-.7h-1.21l-1.09-1v-2l1.09-1h2.41l1.09,1v2.71Zm9.64-1.6-.66.3-.33.6v.4l.44.4,3.4.7,2.08,1.9V161l-2.85,2.61H169V160.2h5l.66-.3.33-.6v-.8l-.55-.5-3.4-.7-2-1.8v-3.3l2.85-2.61h7v3.21Zm24.65,10.83V158l-.22-.2h-2.63l-.22.2v5.61h-4.16v-14H196v4.61l.22.2h2.63l.22-.2v-4.61h4.16v14Zm10.74-14h4.27v14h-4.27Zm48.31,4.31-.44-.8-.88-.4h-1.09l-.88.4-.44.8v5.21l.44.8.88.4h1.09l.88-.4.44-.8Zm1.53,9.72h-6.79L250,161v-8.8l2.85-2.61h6.79l2.85,2.61V161ZM276,154l-.44-.8-.88-.4h-1.86l-.22.2v2.5l.22.2h1.86l.88-.4.44-.8Zm.11,9.62-1.64-4.51-.44-.2h-1.2l-.22.2v4.51h-4.16v-14h9l2.85,2.61v3.91l-2,1.8,2.27,5.72Zm10.08-14h4.27v14h-4.27Zm20.41,14h-7.15l-3.07-2.81V152.4l3.07-2.81h6.94v3.31h-3.65l-1.31.6-.55,1v4.21l.55,1,1.31.6h3.87Zm24,0h-3l-4.82-7.42-.44-1,.11,1v7.42h-3.72v-14h4l3.83,5.91.44,1-.11-1v-5.91h3.61Zm14-9.72-.44-.8-.88-.4h-1.09l-.88.4-.44.8v5.21l.44.8.88.4h1.09l.88-.4.44-.8Zm1.53,9.72h-6.79L336.47,161v-8.8l2.85-2.61h6.79L349,152.2V161ZM380.84,154l-.44-.8-.88-.4h-1.86l-.22.2v2.5l.22.2h1.86l.88-.4.44-.8Zm1.2,4.91h-4.38l-.22.2v4.51h-4.16v-14h9l2.85,2.61v3.91ZM397.49,154l-.44-.8-.88-.4h-1.86l-.22.2v2.5l.22.2h1.86l.88-.4.44-.8Zm.11,9.62-1.6-4.5-.44-.2h-1.21l-.22.2v4.51H390v-14h9l2.85,2.61v3.91l-2,1.8,2.27,5.72Zm17.53-9.72-.44-.8-.88-.4h-1.1l-.88.4-.44.8v5.21l.44.8.88.4h1.1l.88-.4.44-.8Zm1.53,9.72h-6.79L407,161v-8.8l2.85-2.61h6.79l2.85,2.61V161Zm13.15-10.82-.22.2v1.6l.22.2h3.07V158h-3.07l-.22.2v5.41h-4.16v-14H435v3.21Zm9.86-3.21h4.27v14h-4.27Zm55.76,14V158l-.22-.2h-2.63l-.22.2v5.61H488.2v-14h4.16v4.61l.22.2h2.63l.22-.2v-4.61h4.16v14Zm20.74,0h-10v-14h10v3.21H510.5l-.17.2v1.4l.22.2h3.07v3.21h-3.07l-.22.2v1.9l.33.3h5.51Zm63.65,0h-10v-14h10v3.21h-5.66l-.17.2v1.4l.22.2h3.07v3.21h-3.07l-.22.2v1.9l.33.3h5.51ZM559.62,154l-.44-.8-.88-.4h-1.86l-.22.2v2.5l.22.2h1.86l.88-.4.44-.8Zm.11,9.62-1.64-4.51-.44-.2h-1.21l-.22.2v4.51h-4.16v-14h9l2.85,2.61v3.91l-2,1.8,2.27,5.72ZM225.29,152.8l-.66.3-.33.6v.4l.44.4,3.4.7,2.08,1.9V161l-2.85,2.61h-7.48V160.2h5l.66-.3.33-.6v-.8l-.55-.5-3.4-.7-2-1.8v-3.3l2.85-2.61h7v3.21Zm17.09.1-.22.2v10.52h-4.27V153.1l-.22-.2h-4v-3.31h12.68v3.31ZM366.7,163.63h-3l-4.82-7.42-.44-1,.11,1v7.42h-3.72v-14h4l3.83,5.91.44,1-.11-1v-5.91h3.62ZM457,152.9l-.22.2v10.52H452.5V153.1l-.22-.2h-4v-3.31H461v3.31Zm22.9,0-.22.2v10.52H475.4V153.1l-.22-.2h-4v-3.31h12.68v3.31Zm46.26.2-.11-.7-.11.7-1.09,4.31.22.2h2l.22-.2Zm2.61,10.52-.68-2.81-.22-.2h-3.61l-.22.2-.68,2.81h-4l3.88-14h6l3.83,14Zm15-10.72-.22.2v10.52h-4.27V153.1l-.22-.2h-4v-3.31h12.68v3.31ZM20.32,143.5l-1.14.58v25l1.14.58Zm-4,3.49v4.22l-.14.17-3.29.84,2-1.31v-1.6l-.86-.87H12.31l-1.14,1.16v.87l.57.58h.57l-.29-.58.29-.58.57-.29h.57l.29.58-.29.58-1.14,1.16-1.72.87-9.16,2.33L0,156.6l1.43,1.45,9.16,2.33,1.72.87,1.14,1.17.29.58-.29.58h-.57l-.57-.29-.29-.58.29-.58h-.57l-.57.58v.87l1.14,1.16H14l.86-.87v-1.6l-2-1.31,3.29.85.14.17v4.22l1.15.58V146.41ZM3.15,155.87l13-3.32.14.12v3.2l-.14.14H2Zm0,1.46L2,157.18H16.17l.14.14v3.2l-.14.12Z"/></g></g></g></g></g></g></g></svg>